<svg width="54" height="111" viewBox="0 0 54 111" fill="none" xmlns="http://www.w3.org/2000/svg">
<g clip-path="url(#clip0_304_13)">
<path d="M30.1201 11.6133C32.0273 12.1055 32.6865 15.3867 31.2275 17.0977L30.8408 17.5547L31.2012 18.8555C32.2822 22.7812 33.6094 25.9688 34.8047 27.5508C36.2549 29.4727 37.6523 29.4141 39.1465 27.3867C39.4893 26.9297 40.0254 26.0391 40.333 25.4297C41.0273 24.0469 41.7217 22.2305 41.5811 22.1719C41.2471 22.0195 40.7109 21.3047 40.4824 20.6953C40.2715 20.168 40.2188 19.875 40.2188 19.3008C40.2275 17.1211 41.7217 15.6211 43.2861 16.2188C44.2354 16.5938 45 17.9531 45 19.2773C45 20.3906 44.4199 21.6094 43.6553 22.125C43.374 22.3125 43.2246 22.5 43.1543 22.7695C43.1016 22.9688 42.0732 26.9766 40.8604 31.6641L38.6719 40.1953V43.9922V47.8008L38.4609 48.1289L38.25 48.457H22.5H6.75L6.53906 48.1289L6.32812 47.8008V43.9688L6.31934 40.1367L4.05176 31.2891L1.77539 22.4414L1.34473 22.125C-0.149414 21.0234 -0.439453 18.6211 0.74707 17.0391C1.52051 16.0078 2.52246 15.7852 3.48926 16.4531C4.02539 16.8164 4.33301 17.25 4.5791 17.9883C5.07129 19.4648 4.68457 21.082 3.60352 22.0547L3.38379 22.2422L3.64746 22.9219C4.5791 25.3477 6.23145 27.8906 7.33887 28.6055C8.15625 29.1445 8.9209 29.1562 9.70312 28.6523C11.3467 27.6094 13.1309 24.0586 14.5986 18.8906L14.9414 17.6836L14.4668 17.0977C12.8057 15.082 13.8076 11.5664 16.04 11.5664C17.7627 11.5664 18.8877 13.8984 18.1934 16.0312C17.9824 16.6875 17.3584 17.5312 16.9893 17.6484C16.875 17.6953 16.7871 17.7539 16.7871 17.8008C16.7871 18 17.4287 20.3438 17.8242 21.6211C19.0283 25.418 20.2676 27.7617 21.5244 28.6055C22.1133 29.0039 22.9043 28.9805 23.5898 28.5469C24.8643 27.7266 26.3672 25.1719 27.7646 21.4688C28.2568 20.168 28.916 18.0938 28.916 17.8711C28.916 17.7891 28.8105 17.6836 28.6875 17.6484C28.292 17.5078 27.624 16.5586 27.4131 15.832C26.7627 13.5352 28.292 11.1328 30.1201 11.6133ZM28.9512 13.8398C28.292 14.6719 28.916 16.2305 29.8213 16.0078C30.1992 15.9141 30.5508 15.4688 30.6211 14.9883C30.6738 14.6016 30.5156 13.9805 30.2959 13.7344C29.9268 13.3242 29.3203 13.3711 28.9512 13.8398ZM15.3281 13.8398C14.6689 14.6719 15.293 16.2305 16.1982 16.0078C16.5762 15.9141 16.9277 15.4688 16.998 14.9883C17.0508 14.6016 16.8926 13.9805 16.6729 13.7344C16.3037 13.3242 15.6973 13.3711 15.3281 13.8398ZM41.9502 18.3047C41.8447 18.4453 41.7129 18.7266 41.6514 18.9492C41.5195 19.4883 41.7568 20.1328 42.1963 20.4258C43.0225 20.9648 43.8574 19.8281 43.4619 18.7148C43.1895 17.9414 42.4072 17.7305 41.9502 18.3047ZM1.97754 18.1172C1.37988 18.4922 1.25684 19.5703 1.73145 20.2031C1.90723 20.4492 2.03906 20.5078 2.37305 20.5078C3.70898 20.5078 3.71777 18.0938 2.39062 17.9414C2.32031 17.9414 2.13574 18.0117 1.97754 18.1172ZM29.4961 21.0117C28.2393 24.7266 26.5518 28.0078 25.207 29.3555C22.7725 31.793 20.5928 31.125 18.5098 27.3047C17.9385 26.2383 16.8047 23.3672 16.3916 21.9141C16.2598 21.4336 16.0664 20.8008 15.9697 20.5078L15.8027 19.9805L15.5479 20.8594C15.0908 22.3945 14.0889 24.9727 13.4385 26.3086C13.0342 27.1289 12.5156 27.9844 12.0059 28.6523C9.83496 31.5234 7.51465 31.6641 5.33496 29.0625C5.0625 28.7344 4.83398 28.5 4.84277 28.5586C4.84277 28.6055 5.44922 30.9961 6.1875 33.8672L7.53223 39.082H22.5H37.4678L37.7578 37.9688C37.9072 37.3594 38.4961 35.0742 39.0586 32.8945C39.6123 30.7266 40.0605 28.9453 40.043 28.9453C40.0254 28.9453 39.8145 29.1562 39.5859 29.4141C39.3486 29.6836 38.8564 30.0938 38.5049 30.3281C37.8721 30.75 37.8105 30.7617 36.9229 30.7617C36.0264 30.7617 35.9648 30.75 35.2969 30.3164C34.7256 29.9531 34.4531 29.6719 33.7939 28.793C33.3545 28.1953 32.7568 27.2461 32.4756 26.6602C31.8516 25.4062 30.8496 22.8047 30.3311 21.0586C30.1201 20.3672 29.9268 19.8164 29.9092 19.8516C29.8828 19.875 29.6982 20.4023 29.4961 21.0117ZM7.73438 43.8281V46.6406H22.5H37.2656V43.8281V41.0156H22.5H7.73438V43.8281Z" fill="#EFB702"/>
</g>
<path d="M26.1733 109.182H8.21875V51H26.9688C32.6127 51 37.4422 52.1648 41.4574 54.4943C45.4725 56.8049 48.5502 60.1288 50.6903 64.4659C52.8305 68.7841 53.9006 73.9545 53.9006 79.9773C53.9006 86.0379 52.821 91.2557 50.6619 95.6307C48.5028 99.9867 45.3589 103.339 41.2301 105.688C37.1013 108.017 32.0824 109.182 26.1733 109.182ZM15.2642 102.932H25.7188C30.5294 102.932 34.5161 102.004 37.679 100.148C40.8419 98.2917 43.1998 95.6496 44.7528 92.2216C46.3059 88.7936 47.0824 84.7121 47.0824 79.9773C47.0824 75.2803 46.3153 71.2367 44.7812 67.8466C43.2472 64.4375 40.9555 61.8239 37.9062 60.0057C34.857 58.1686 31.0597 57.25 26.5142 57.25H15.2642V102.932Z" fill="black"/>
<path d="M7.5 109.363V109.863H8H15.0455H15.5455V109.363V87.1362H27.7727C28.1751 87.1362 28.5714 87.1303 28.9618 87.1185L41.0826 109.601L41.2243 109.863H41.5227H49.7045H50.5486L50.1431 109.123L37.2813 85.6455C37.9207 85.4051 38.5304 85.1355 39.1101 84.8361L39.1124 84.835C42.0913 83.2773 44.3185 81.1246 45.7716 78.3755C47.2163 75.6423 47.9318 72.5203 47.9318 69.0225C47.9318 65.5247 47.2163 62.3849 45.7729 59.6153C44.3205 56.8282 42.0842 54.6464 39.0862 53.0693C36.0753 51.4664 32.2567 50.6816 27.6591 50.6816H8H7.5V51.1816V109.363ZM27.5455 79.7725H15.5455V57.9316H27.4318C30.5313 57.9316 32.9736 58.4088 34.7917 59.3268L34.7952 59.3286C36.6204 60.2322 37.9281 61.5026 38.746 63.1382C39.5763 64.7989 40 66.7556 40 69.0225C40 71.2901 39.5761 73.2154 38.749 74.8157L38.748 74.8176C37.9523 76.3736 36.658 77.589 34.8308 78.4573L34.8291 78.4582C33.0271 79.3231 30.6095 79.7725 27.5455 79.7725Z" fill="#EE1313" stroke="black"/>
<defs>
<clipPath id="clip0_304_13">
<rect width="45" height="60" fill="white" transform="matrix(-1 0 0 1 45 0)"/>
</clipPath>
</defs>
</svg>
